<svg width="95" height="71" viewBox="0 0 95 71" fill="none" xmlns="http://www.w3.org/2000/svg">
<g id="illustration_building_construction">
<path id="Vector" d="M67.328 34.656H44.48V69.9456H67.328V34.656Z" fill="#E9AF34" stroke="#E9AF34" stroke-width="0.75" stroke-linecap="round" stroke-linejoin="round"/>
<path id="Vector_2" d="M8.44794 47.7119H5.88794V52.4415H8.44794V47.7119Z" fill="#E9AF34" stroke="#E9AF34" stroke-width="0.5" stroke-linecap="round" stroke-linejoin="round"/>
<path id="Vector_3" d="M14.7199 47.7119H12.1599V52.4415H14.7199V47.7119Z" fill="#E9AF34" stroke="#E9AF34" stroke-width="0.5" stroke-linecap="round" stroke-linejoin="round"/>
<path id="Vector_4" d="M8.44794 56.1599H5.88794V60.8895H8.44794V56.1599Z" fill="#E9AF34" stroke="#E9AF34" stroke-width="0.5" stroke-linecap="round" stroke-linejoin="round"/>
<path id="Vector_5" d="M81.4721 56.1599H78.9121V60.8895H81.4721V56.1599Z" fill="#DB6C2F" stroke="#DB6C2F" stroke-width="0.5" stroke-linecap="round" stroke-linejoin="round"/>
<path id="Vector_6" d="M81.4721 47.7119H78.9121V52.4415H81.4721V47.7119Z" fill="#DB6C2F" stroke="#DB6C2F" stroke-width="0.5" stroke-linecap="round" stroke-linejoin="round"/>
<path id="Vector_7" d="M36.864 24.48H32.064V27.1808H36.864V24.48Z" fill="#DB6C2F" stroke="#DB6C2F" stroke-width="0.5" stroke-miterlimit="10" stroke-linecap="round"/>
<path id="Vector_8" d="M38.464 6.62394H1.34399L12.352 1.88794L38.464 6.62394Z" fill="#DB6C2F" stroke="#DB6C2F" stroke-width="0.5" stroke-miterlimit="10" stroke-linecap="round"/>
<path id="Vector_9" d="M67.0081 20.6399V34.6559" stroke="#1F323D" stroke-width="0.75" stroke-miterlimit="10"/>
<path id="Vector_10" d="M56.384 20.6399V34.6559" stroke="#1F323D" stroke-width="0.75" stroke-miterlimit="10"/>
<path id="Vector_11" d="M45.1841 31.3281H67.2001" stroke="#1F323D" stroke-width="0.75" stroke-miterlimit="10"/>
<path id="Vector_12" d="M45.1841 25.6321H67.2001" stroke="#1F323D" stroke-width="0.75" stroke-miterlimit="10"/>
<path id="Vector_13" d="M44.928 20.6399V34.6559" stroke="#1F323D" stroke-width="0.75" stroke-miterlimit="10"/>
<path id="Vector_14" d="M75.072 70.6879V42.7839H94.4V70.6879" stroke="#1F323D" stroke-width="0.75" stroke-miterlimit="10"/>
<path id="Vector_15" d="M1.6001 69.8559V42.7839H47.8081V62.3679" stroke="#1F323D" stroke-width="0.75" stroke-miterlimit="10"/>
<path id="Vector_16" d="M33.9839 4.76807V24.8001" stroke="#1F323D" stroke-width="0.75" stroke-linecap="round" stroke-linejoin="round"/>
<path id="Vector_17" d="M15.8081 41.952V1.31201" stroke="#1F323D" stroke-width="0.75" stroke-linecap="round" stroke-linejoin="round"/>
<path id="Vector_18" d="M10.5601 41.9519V1.50391" stroke="#1F323D" stroke-width="0.75" stroke-linecap="round" stroke-linejoin="round"/>
</g>
</svg>
